<svg width="80" height="80" viewBox="0 0 80 80" fill="none" xmlns="http://www.w3.org/2000/svg">
<circle cx="40" cy="40" r="40" fill="#DB8C8C"/>
<path d="M27.5004 39.9993C29.8016 39.9993 31.6671 38.1339 31.6671 35.8327C31.6671 33.5315 29.8016 31.666 27.5004 31.666C25.1992 31.666 23.3337 33.5315 23.3337 35.8327C23.3337 38.1339 25.1992 39.9993 27.5004 39.9993Z" fill="#343A40"/>
<path d="M35.0004 33.3333C37.3016 33.3333 39.1671 31.4679 39.1671 29.1667C39.1671 26.8655 37.3016 25 35.0004 25C32.6992 25 30.8337 26.8655 30.8337 29.1667C30.8337 31.4679 32.6992 33.3333 35.0004 33.3333Z" fill="#343A40"/>
<path d="M45.0004 33.3333C47.3016 33.3333 49.1671 31.4679 49.1671 29.1667C49.1671 26.8655 47.3016 25 45.0004 25C42.6992 25 40.8337 26.8655 40.8337 29.1667C40.8337 31.4679 42.6992 33.3333 45.0004 33.3333Z" fill="#343A40"/>
<path d="M52.5004 39.9993C54.8016 39.9993 56.6671 38.1339 56.6671 35.8327C56.6671 33.5315 54.8016 31.666 52.5004 31.666C50.1992 31.666 48.3337 33.5315 48.3337 35.8327C48.3337 38.1339 50.1992 39.9993 52.5004 39.9993Z" fill="#343A40"/>
<path d="M48.8989 44.7667C47.4489 43.0667 46.2323 41.6167 44.7656 39.9167C43.9989 39.0167 43.0156 38.1167 41.8489 37.7167C41.6656 37.65 41.4823 37.6 41.2989 37.5667C40.8823 37.5 40.4323 37.5 39.9989 37.5C39.5656 37.5 39.1156 37.5 38.6823 37.5833C38.4989 37.6167 38.3156 37.6667 38.1323 37.7333C36.9656 38.1333 35.9989 39.0333 35.2156 39.9333C33.7656 41.6333 32.5489 43.0833 31.0823 44.7833C28.8989 46.9667 26.2156 49.3833 26.7156 52.7667C27.1989 54.4667 28.4156 56.15 30.5989 56.6333C31.8156 56.8833 35.6989 55.9 39.8323 55.9H40.1323C44.2656 55.9 48.1489 56.8667 49.3656 56.6333C51.5489 56.15 52.7656 54.45 53.2489 52.7667C53.7656 49.3667 51.0823 46.95 48.8989 44.7667Z" fill="#343A40"/>
</svg>
