<svg width="460" height="219" viewBox="0 0 460 219" fill="none" xmlns="http://www.w3.org/2000/svg">
<path d="M78.6293 140.837C72.77 134.895 69.9055 126.758 69.9055 116.165C69.9055 110.482 70.9472 104.928 73.1606 99.6315C75.5043 94.3355 78.8897 90.202 83.577 87.1019C88.2644 84.131 93.8632 82.5809 100.373 82.5809C106.623 82.5809 112.092 84.0018 116.779 86.8436C121.206 89.6854 124.592 93.5605 127.066 98.3398C129.539 103.119 130.711 108.544 130.711 114.486C130.711 116.036 130.19 117.457 129.019 118.62C127.977 119.782 126.415 120.299 124.722 120.299H81.7542C82.5354 126.241 84.7489 130.891 88.5248 133.991C92.3008 137.091 97.3788 138.77 103.889 138.77C107.274 138.77 110.269 138.512 113.003 137.866C115.738 137.22 118.342 136.187 121.076 134.895C121.727 134.508 122.378 134.379 123.42 134.379C124.722 134.379 126.024 134.895 127.066 135.8C128.107 136.704 128.628 137.995 128.628 139.416C128.628 141.354 127.456 142.904 125.243 144.196C121.727 146.133 118.342 147.554 115.087 148.458C111.832 149.362 107.795 149.75 102.978 149.75C92.5612 149.621 84.3583 146.65 78.6293 140.837ZM118.993 109.061C118.602 105.703 117.691 102.861 115.998 100.665C114.175 97.9523 111.832 96.0147 109.097 94.5939C106.363 93.3021 103.498 92.5271 100.504 92.5271C97.7694 92.5271 94.9049 93.173 92.0404 94.4647C89.0457 95.8856 86.702 98.0815 85.0093 100.794C83.3166 103.636 82.275 106.865 82.0146 110.74H117.561C118.472 110.611 118.993 110.094 118.993 109.061Z" fill="#212529"/>
<path d="M174.591 139.545C175.502 140.45 176.023 141.612 176.023 142.775C176.023 144.712 174.981 146.262 173.028 147.296C169.773 148.846 166.257 149.621 162.481 149.621C149.982 149.621 143.732 144.066 143.732 132.828V94.4646H137.352C135.789 94.4646 134.487 94.0771 133.576 93.1729C132.665 92.2687 132.274 91.1062 132.274 89.4269C132.274 87.8769 132.665 86.5852 133.576 85.681C134.487 84.7768 135.659 84.3892 137.352 84.3892H143.732V75.4764C143.732 73.5389 144.253 72.118 145.294 71.0846C146.336 70.0512 147.768 69.5345 149.721 69.5345C151.544 69.5345 152.977 70.0512 154.018 71.0846C155.06 72.118 155.581 73.5389 155.581 75.4764V84.3892H169.773C171.205 84.3892 172.377 84.9059 173.419 85.8101C174.33 86.7143 174.851 88.006 174.851 89.4269C174.851 90.7186 174.33 92.0103 173.419 92.9145C172.507 93.9479 171.205 94.4646 169.773 94.4646H155.581V131.795C155.581 134.766 156.232 136.704 157.664 137.737C158.966 138.77 161.049 139.287 163.784 139.287C165.606 139.287 167.299 139.029 168.862 138.512C168.992 138.512 169.122 138.512 169.252 138.383C170.033 138.254 170.815 138.125 171.466 138.125C172.637 138.125 173.679 138.641 174.591 139.545Z" fill="#212529"/>
<path d="M40.4793 149.75C37.2242 149.75 34.6201 147.167 34.6201 143.937V93.0438C34.6201 91.3646 35.2711 89.8145 36.4429 88.7812C37.6148 87.6186 39.3074 87.1019 40.8699 87.2311C42.3022 87.3603 46.2083 85.5519 56.8851 73.7973C58.057 72.5056 58.8382 71.6014 59.4892 70.9555C64.0464 66.5637 72.6399 66.3053 75.244 66.3053C92.1707 66.3053 98.4205 63.4636 100.764 61.1385C102.587 59.2009 103.108 56.4883 102.717 51.1923C102.587 48.8672 101.415 46.6713 99.5924 45.5088C98.5508 44.8629 95.4258 43.442 93.0821 42.4087C89.176 40.7294 86.5719 39.5669 85.0094 38.4043C80.8429 35.3042 77.4575 31.2999 74.593 26.1331C74.4628 25.8747 74.3326 25.6164 74.0722 25.2289C72.7701 22.9038 70.2962 17.8661 66.1297 15.1535C62.7444 12.4409 61.4423 11.9242 49.8541 12.0534C43.8646 12.1826 39.3075 13.3451 36.7034 15.4119C35.1409 16.5744 34.8805 18.7703 34.8805 19.0286V47.3172C34.8805 48.4797 34.6201 53.6466 30.5837 57.6509C28.3702 59.8468 24.4641 62.4302 17.5632 62.4302H17.433C6.88639 62.4302 1.54799 54.2924 0.245935 50.1589C-0.6655 47.0588 1.02717 43.8295 4.15209 42.7962C7.27701 41.892 10.5321 43.5712 11.5738 46.5421C11.8342 47.3172 13.2664 50.6756 17.5632 50.6756C19.1257 50.6756 21.209 50.4173 22.2506 49.3839C23.0318 48.6089 23.162 47.4463 23.162 47.4463V47.3172V18.8995C23.162 18.7703 23.162 18.7703 23.162 18.6411C23.162 17.8661 23.5526 10.8909 29.4119 6.24069C34.0993 2.49472 41.0001 0.427981 49.7239 0.298809C62.0933 0.0404668 66.3901 0.686323 72.9004 5.20732C79.4106 9.59914 83.0563 16.5744 84.6188 19.5453C84.749 19.8037 84.8792 20.062 85.0094 20.3204C87.0927 24.0663 89.4364 26.7789 92.1707 28.8457C92.9519 29.3624 95.9466 30.6541 97.8997 31.4291C101.285 32.85 104.41 34.2709 106.363 35.5626C111.181 38.7919 114.175 44.0879 114.566 50.1589C114.957 56.3592 114.696 63.3344 109.488 69.0179C103.629 75.3473 93.0821 78.0599 75.244 77.9308C72.2493 77.9308 68.6036 78.5766 67.6922 79.3516C67.4317 79.61 66.5203 80.6434 65.7391 81.5476C59.7496 88.1353 53.1092 95.1105 46.4687 97.8231V144.066C46.3385 147.037 43.7344 149.75 40.4793 149.75Z" fill="#212529"/>
<path d="M400.365 138.125C399.714 138.125 399.063 138.254 398.152 138.383C398.022 138.512 397.891 138.512 397.761 138.512C396.199 139.029 394.506 139.287 392.683 139.287C389.949 139.287 387.996 138.77 386.564 137.737C385.262 136.704 384.481 134.766 384.481 131.795V106.348C382.398 105.961 380.575 105.444 378.882 104.54C377.059 105.444 374.976 106.09 372.763 106.348V132.699C372.763 143.937 379.012 149.492 391.512 149.492C395.287 149.492 398.803 148.717 402.058 147.167C404.141 146.133 405.053 144.583 405.053 142.646C405.053 141.354 404.532 140.32 403.62 139.416C402.709 138.641 401.667 138.125 400.365 138.125Z" fill="#212529"/>
<path d="M224.199 146.65C223.027 145.487 222.506 144.196 222.506 142.516V66.047C222.506 64.497 223.027 63.0761 224.199 61.9135C225.371 60.751 226.673 60.1051 228.365 60.1051H275.63C277.192 60.1051 278.494 60.6218 279.536 61.7844C280.578 62.8177 281.229 64.2386 281.229 65.6595C281.229 67.0804 280.708 68.5013 279.536 69.5346C278.494 70.568 277.062 71.0847 275.63 71.0847H235.787C234.745 71.0847 234.225 71.6014 234.225 72.6347V98.7273H270.942C272.505 98.7273 273.807 99.244 274.849 100.407C275.89 101.44 276.541 102.861 276.541 104.282C276.541 105.703 276.02 107.123 274.849 108.157C273.807 109.19 272.375 109.707 270.942 109.707H234.225V135.929C234.225 136.962 234.745 137.479 235.787 137.479H275.63C277.192 137.479 278.494 137.995 279.536 139.158C280.578 140.191 281.229 141.612 281.229 143.033C281.229 144.454 280.708 145.875 279.536 146.908C278.494 147.942 277.062 148.458 275.63 148.458H228.365C226.673 148.329 225.24 147.812 224.199 146.65Z" fill="#212529"/>
<path d="M299.848 147.425C296.593 145.875 293.989 143.679 292.036 140.708C290.213 137.737 289.301 134.379 289.301 130.633C289.301 124.045 291.905 119.007 296.983 115.39C302.061 111.774 309.353 109.965 318.728 109.965H333.962V109.061C333.962 103.636 332.66 99.7607 329.925 97.3064C327.191 94.8522 322.894 93.5604 317.035 93.5604C314.04 93.5604 311.176 93.8188 308.832 94.2063C306.358 94.723 303.494 95.498 300.239 96.5314L298.546 96.7897C297.244 96.7897 296.202 96.273 295.16 95.3688C294.249 94.4647 293.728 93.3021 293.728 91.8812C293.728 89.5561 294.9 87.8769 297.114 86.9727C304.275 84.0018 311.566 82.4517 319.118 82.4517C324.977 82.4517 329.925 83.6143 334.092 85.9394C337.998 88.2644 340.862 91.2354 342.816 94.9813C344.769 98.7273 345.68 102.861 345.68 107.382V143.033C345.68 144.583 345.029 146.004 343.857 147.167C342.685 148.329 341.253 148.846 339.691 148.846C338.128 148.846 336.696 148.329 335.524 147.167C334.352 146.004 333.831 144.712 333.831 143.033V140.062C327.712 146.392 319.769 149.492 310.004 149.492C306.488 149.621 302.973 148.846 299.848 147.425ZM324.977 136.704C328.363 135.024 331.357 132.699 333.831 129.987V119.524H320.16C307.4 119.524 301.15 122.753 301.15 129.341C301.15 135.929 305.577 139.287 314.561 139.287C318.077 139.287 321.592 138.383 324.977 136.704Z" fill="#212529"/>
<path d="M412.085 143.937C410.652 142.904 409.871 141.483 409.871 139.675C409.871 138.383 410.392 137.091 411.303 136.058C412.215 135.024 413.517 134.508 414.949 134.508C415.73 134.508 416.512 134.637 417.293 135.024C420.157 136.316 423.022 137.22 425.626 137.866C428.36 138.512 431.355 138.77 434.48 138.77C443.855 138.77 448.412 135.799 448.412 129.987C448.412 128.178 447.37 126.757 445.417 125.724C443.334 124.691 439.688 123.528 434.74 122.366C429.792 121.332 425.756 120.041 422.371 118.749C418.725 117.457 415.861 115.39 413.647 112.678C411.434 109.965 410.392 106.607 410.392 102.732C410.392 96.7897 412.605 91.8812 417.032 88.2644C421.459 84.5185 427.579 82.7101 435.391 82.7101C442.162 82.7101 448.282 83.7434 453.88 85.8102C455.052 86.1977 455.964 86.7144 456.615 87.7477C457.266 88.6519 457.656 89.6853 457.656 90.7187C457.656 92.0104 457.136 93.3021 456.094 94.3355C455.052 95.3689 453.88 95.8855 452.448 95.8855L450.756 95.6272C445.678 94.0771 440.86 93.3021 436.303 93.3021C431.876 93.3021 428.36 94.0771 425.756 95.7564C423.152 97.3064 421.85 99.5023 421.85 102.086C421.85 104.54 423.022 106.348 425.235 107.511C427.709 108.544 431.355 109.707 436.303 110.869C440.86 112.032 444.896 113.324 448.542 114.486C452.058 115.778 454.792 117.845 456.875 120.557C458.958 123.27 460 126.757 460 130.891C460 136.316 457.787 140.837 453.36 144.325C448.933 147.812 442.943 149.621 435.261 149.621C427.058 149.621 419.246 147.683 412.085 143.937Z" fill="#212529"/>
<path d="M402.059 87.1018C399.324 85.4226 395.679 86.1976 393.856 88.9102C393.595 89.2978 393.205 89.8144 393.075 90.0728C392.944 90.202 392.814 90.3311 392.684 90.4603C391.773 90.977 390.861 91.3645 389.559 91.3645C384.872 91.3645 384.872 90.0728 384.872 88.2644V79.6099C384.872 78.8349 384.741 78.189 384.481 77.5432L386.304 74.3139C386.825 73.2805 386.825 72.118 386.304 71.0846C385.783 70.0512 384.611 69.5345 383.439 69.5345H374.065C372.893 69.5345 371.851 70.1804 371.2 71.0846C370.679 72.118 370.679 73.2805 371.2 74.3139L373.283 77.8015C373.153 78.3182 373.023 78.9641 373.023 79.6099V88.2644C373.023 90.202 373.023 91.3645 368.336 91.3645C366.903 91.3645 366.122 90.977 365.211 90.4603C365.081 90.3311 364.95 90.202 364.82 90.0728C364.69 89.9436 364.299 89.4269 364.039 88.9102C362.346 86.1976 358.7 85.2934 355.836 87.1018C353.102 88.7811 352.19 92.3979 354.013 95.2396C354.273 95.6271 354.925 96.7897 355.576 97.5647C356.487 98.7273 357.398 99.6315 358.7 100.406C361.695 102.344 364.82 103.248 368.336 103.248C372.632 103.248 376.278 102.215 379.012 100.406C381.747 102.215 385.392 103.248 389.689 103.248C393.205 103.248 396.33 102.344 399.324 100.406C400.626 99.6315 401.408 98.7273 402.449 97.5647C403.1 96.7897 403.882 95.6271 404.012 95.2396C405.574 92.527 404.793 88.9102 402.059 87.1018Z" fill="#DB8C8C"/>
<path d="M428.1 38.6626C426.798 37.7584 425.235 37.6292 423.803 38.1459L407.658 44.6045C398.934 40.7293 389.169 38.6626 379.013 38.6626C368.857 38.6626 358.961 40.7293 350.367 44.6045L334.222 38.1459C332.79 37.6292 331.227 37.7584 329.925 38.6626C328.623 39.5668 327.972 40.9877 327.972 42.5377L328.493 62.4301C328.493 64.8844 330.576 66.822 333.05 66.822H333.18C335.654 66.822 337.738 64.626 337.607 62.1718L337.347 49.1255L348.675 53.6465C349.326 53.9048 349.977 54.034 350.628 54.034C350.628 54.034 350.628 54.034 350.758 54.034C351.018 54.034 351.409 54.034 351.67 53.9048C352.06 53.7757 352.321 53.7757 352.581 53.5173C360.393 49.6422 369.638 47.5754 379.143 47.5754C388.648 47.5754 397.892 49.6422 405.705 53.5173C405.965 53.6465 406.356 53.7757 406.616 53.9048C406.876 54.034 407.267 54.034 407.527 54.034C407.527 54.034 407.527 54.034 407.658 54.034C408.309 54.034 408.96 53.9048 409.611 53.6465L420.939 49.1255L420.678 62.1718C420.678 64.626 422.631 66.6928 425.105 66.822H425.235C427.709 66.822 429.793 64.8844 429.793 62.4301L430.313 42.5377C430.053 40.9877 429.402 39.5668 428.1 38.6626Z" fill="#212529"/>
<path d="M48.4375 179.477C49.5312 179.477 50.0781 179.945 50.0781 180.883C50.0781 181.82 49.5312 182.289 48.4375 182.289H43.8672V186.234H46.25C48.2292 186.234 49.2188 187.211 49.2188 189.164V209.203C49.2188 211.13 48.2552 212.094 46.3281 212.094H35.4297C33.4766 212.094 32.5 211.13 32.5 209.203V189.164C32.5 187.211 33.4766 186.234 35.4297 186.234H37.4609L37.4219 182.289H32.5C31.4323 182.289 30.8984 181.82 30.8984 180.883C30.8984 179.945 31.4323 179.477 32.5 179.477H48.4375ZM64.9219 203.695C65.9635 203.695 66.4844 204.268 66.4844 205.414C66.4844 208.852 65.7031 210.896 64.1406 211.547C63.2031 211.938 61.1979 212.133 58.125 212.133C55.2083 212.133 53.3464 211.898 52.5391 211.43C51.8099 210.987 51.4193 210.232 51.3672 209.164V195.297C51.1589 192.927 52.2266 191.846 54.5703 192.055H60.3516C60.8724 192.055 61.25 191.938 61.4844 191.703C61.7448 191.469 61.862 191.091 61.8359 190.57V183.969C61.8359 182.953 61.3411 182.458 60.3516 182.484H52.6953C51.5234 182.484 50.9375 182.003 50.9375 181.039C50.9375 180.076 51.5234 179.594 52.6953 179.594H61.6016C62.7995 179.594 63.6458 179.841 64.1406 180.336C64.6615 180.831 64.8828 181.638 64.8047 182.758V191.82C64.8047 192.862 64.5443 193.643 64.0234 194.164C63.5286 194.685 62.7474 194.945 61.6797 194.945H55.5859C55.1432 194.945 54.8047 195.076 54.5703 195.336C54.3359 195.57 54.2057 195.909 54.1797 196.352V207.25C54.1797 207.953 54.4661 208.448 55.0391 208.734C55.5599 208.995 57.2786 209.125 60.1953 209.125C61.862 209.125 62.7734 208.708 62.9297 207.875L63.2031 205.805C63.3073 205.102 63.4896 204.581 63.75 204.242C64.0365 203.878 64.4271 203.695 64.9219 203.695ZM41.5234 186.234V182.289H39.8047L39.8438 186.234H41.5234ZM35.1953 197.641C36.1589 196.964 36.7839 196.104 37.0703 195.062C37.3047 194.203 37.4219 192.185 37.4219 189.008H36.2891C35.5599 189.008 35.1953 189.359 35.1953 190.062V197.641ZM44.1406 198.93C43.099 198.93 42.3828 198.76 41.9922 198.422C41.6797 198.188 41.5234 197.732 41.5234 197.055V189.008H39.8047C39.8047 193.096 39.401 195.831 38.5938 197.211C38.2812 197.758 37.8255 198.292 37.2266 198.812C36.6276 199.333 35.9505 199.763 35.1953 200.102V202.328H46.4844V198.93H44.1406ZM43.9453 195.57C43.9453 196.169 44.2188 196.469 44.7656 196.469H46.4844V190.062C46.4844 189.359 46.1458 189.008 45.4688 189.008H43.9453V195.57ZM46.4844 204.945H35.1953V208.188C35.1953 208.552 35.2865 208.839 35.4688 209.047C35.6771 209.255 35.9635 209.359 36.3281 209.359H45.3516C46.1068 209.359 46.4844 208.969 46.4844 208.188V204.945ZM83.2969 187.719C79.8594 189.542 77.5938 190.453 76.5 190.453C75.4323 190.453 74.8984 189.854 74.8984 188.656C74.8984 187.901 75.5885 187.315 76.9688 186.898C82.4896 185.154 86.9948 182.523 90.4844 179.008C90.9792 178.513 91.3828 178.148 91.6953 177.914C92.0339 177.68 92.3724 177.562 92.7109 177.562C93.2578 177.562 93.6875 177.706 94 177.992C94.3125 178.253 94.4688 178.578 94.4688 178.969C94.4688 179.125 94.3646 179.385 94.1562 179.75C98.1927 182.953 102.776 185.128 107.906 186.273C109.703 186.664 110.602 187.25 110.602 188.031C110.602 189.307 110.029 189.945 108.883 189.945C107.346 189.945 104.911 189.151 101.578 187.562C98.1927 185.974 95.0677 184.034 92.2031 181.742C89.6771 183.93 86.7083 185.922 83.2969 187.719ZM108.297 210.102C109.807 210.258 110.562 210.779 110.562 211.664C110.562 212.784 110.029 213.344 108.961 213.344C107.424 213.344 105.406 212.914 102.906 212.055C97.2812 210.154 93.401 206.898 91.2656 202.289H83.6094V209.164L92.6328 207.641C93.0755 207.562 93.4141 207.667 93.6484 207.953C93.9089 208.214 94.0391 208.604 94.0391 209.125C94.0391 209.464 93.9349 209.75 93.7266 209.984C93.5182 210.245 93.2318 210.414 92.8672 210.492C92.112 210.648 90.6927 210.922 88.6094 211.312C88.4531 211.339 87.8802 211.443 86.8906 211.625L77.3984 213.266C76.7734 213.266 76.3177 213.122 76.0312 212.836C75.7448 212.576 75.6016 212.159 75.6016 211.586C75.6016 210.961 75.8359 210.531 76.3047 210.297C76.513 210.219 76.9948 210.102 77.75 209.945C78.5312 209.815 79.4688 209.698 80.5625 209.594V192.133C80.3802 189.346 81.6693 188.057 84.4297 188.266H90.7188V186C90.7188 184.828 91.2526 184.242 92.3203 184.242C93.388 184.242 93.9219 184.828 93.9219 186V188.266H101.109C102.516 188.266 103.531 188.578 104.156 189.203C104.807 189.802 105.081 190.779 104.977 192.133V198.461C104.977 199.841 104.664 200.857 104.039 201.508C103.44 202.133 102.464 202.393 101.109 202.289H94.1953C95.2109 203.982 96.2917 205.245 97.4375 206.078H97.4766C100.888 204.542 103.583 203.018 105.562 201.508C106.135 201.065 106.552 200.844 106.812 200.844C107.411 200.844 107.841 200.974 108.102 201.234C108.362 201.495 108.492 201.924 108.492 202.523C108.492 203.565 105.68 205.232 100.055 207.523V207.68C102.607 208.982 105.354 209.789 108.297 210.102ZM83.6094 193.773H101.93V192.562C101.93 191.964 101.826 191.56 101.617 191.352C101.409 191.117 101.005 191 100.406 191H85.1719C84.5729 191 84.1562 191.117 83.9219 191.352C83.7135 191.56 83.6094 191.964 83.6094 192.562V193.773ZM83.6094 199.555H100.406C101.005 199.555 101.409 199.464 101.617 199.281C101.826 199.073 101.93 198.669 101.93 198.07V196.508H83.6094V199.555ZM143.625 213.578C142.714 213.578 142.258 213.07 142.258 212.055V204.711H137.805V211.703C137.805 212.771 137.336 213.305 136.398 213.305C135.461 213.305 134.992 212.771 134.992 211.703V192.562C134.992 191.365 135.253 190.505 135.773 189.984C136.294 189.438 137.128 189.203 138.273 189.281H142.258V185.844H135.773C134.966 185.844 134.432 185.57 134.172 185.023C133.964 185.831 133.469 186.234 132.688 186.234C132.375 186.234 131.815 185.87 131.008 185.141C129.862 184.099 128.677 183.174 127.453 182.367L127.297 182.25C125.526 184.958 123.911 186.964 122.453 188.266L122.961 188.188H131.477C132.518 188.188 133.039 188.617 133.039 189.477C133.039 190.336 132.518 190.766 131.477 190.766H128.43V194.359H132.297C133.365 194.359 133.898 194.802 133.898 195.688C133.898 196.573 133.365 197.016 132.297 197.016H128.43V207.875L132.141 207.172L132.688 207.094C133.104 207.042 133.417 207.133 133.625 207.367C133.859 207.602 133.977 207.94 133.977 208.383C133.977 209.112 133.638 209.555 132.961 209.711C131.633 210.049 127.974 210.74 121.984 211.781L120.969 211.938C120.5 212.016 120.135 211.911 119.875 211.625C119.615 211.339 119.484 210.935 119.484 210.414C119.484 209.529 120.214 208.982 121.672 208.773L125.695 208.227V197.016H121.555C120.461 197.016 119.914 196.573 119.914 195.688C119.914 194.802 120.461 194.359 121.555 194.359H125.695V190.766H123.156C122.115 190.766 121.594 190.336 121.594 189.477C121.594 189.32 121.646 189.151 121.75 188.969C121.073 189.411 120.578 189.633 120.266 189.633C119.354 189.633 118.898 189.112 118.898 188.07C118.898 187.836 119.068 187.523 119.406 187.133C119.745 186.716 120.279 186.156 121.008 185.453C122.831 183.682 124.341 181.534 125.539 179.008C125.878 178.279 126.411 177.914 127.141 177.914C128.234 177.914 128.781 178.318 128.781 179.125C128.781 179.359 128.69 179.659 128.508 180.023C131.997 182.159 133.846 183.552 134.055 184.203C134.237 183.396 134.81 182.992 135.773 182.992H142.258V179.672C142.258 178.5 142.714 177.914 143.625 177.914C144.536 177.914 144.992 178.5 144.992 179.672V182.992H152.844C154.016 182.992 154.602 183.474 154.602 184.438C154.602 185.375 154.016 185.844 152.844 185.844H144.992V189.281H149.602C150.799 189.281 151.659 189.542 152.18 190.062C152.727 190.583 152.974 191.417 152.922 192.562V209.047C152.922 210.401 152.622 211.378 152.023 211.977C151.451 212.602 150.526 212.862 149.25 212.758H147.766C146.672 212.758 146.125 212.25 146.125 211.234C146.125 210.219 146.581 209.711 147.492 209.711H148.625C149.562 209.711 150.044 209.242 150.07 208.305V204.711H144.992V212.055C144.992 213.07 144.536 213.578 143.625 213.578ZM150.617 182.602C150.331 182.602 149.979 182.419 149.562 182.055C147.87 180.674 147.023 179.776 147.023 179.359C147.023 178.5 147.505 178.07 148.469 178.07C148.833 178.07 149.549 178.487 150.617 179.32C151.633 180.102 152.141 180.727 152.141 181.195C152.141 182.133 151.633 182.602 150.617 182.602ZM142.258 192.016H138.977C138.247 192.016 137.857 192.406 137.805 193.188V195.805H142.258V192.016ZM150.07 193.188C150.07 192.458 149.667 192.068 148.859 192.016H144.992V195.805H150.07V193.188ZM142.258 202.055V198.461H137.805V202.055H142.258ZM150.07 202.055V198.461H144.992V202.055H150.07ZM122.336 206.156C121.477 206.156 121.047 205.688 121.047 204.75V200.414C121.047 199.451 121.477 198.969 122.336 198.969C123.195 198.969 123.625 199.451 123.625 200.414V204.75C123.625 205.688 123.195 206.156 122.336 206.156ZM131.789 205.688C130.93 205.688 130.5 205.219 130.5 204.281V200.414C130.5 199.451 130.93 198.969 131.789 198.969C132.648 198.969 133.078 199.451 133.078 200.414V204.281C133.078 205.219 132.648 205.688 131.789 205.688Z" fill="#212529"/>
</svg>
