<svg width="32" height="32" viewBox="0 0 32 32" fill="none" xmlns="http://www.w3.org/2000/svg">
<path d="M11.333 2.66699C9.12387 2.66699 7.33301 4.45786 7.33301 6.66699C7.33301 8.87613 9.12387 10.667 11.333 10.667H20.6663C22.8755 10.667 24.6663 8.87613 24.6663 6.66699C24.6663 4.45786 22.8755 2.66699 20.6663 2.66699H11.333Z" fill="black"/>
<path d="M20.667 12C18.4578 12 16.667 13.7908 16.667 16C16.667 18.2092 18.4578 20 20.667 20C22.8762 20 24.667 18.2092 24.667 16C24.667 13.7908 22.8762 12 20.667 12Z" fill="black"/>
<path d="M7.33301 16C7.33301 13.7908 9.12387 12 11.333 12H15.333V20H11.333C9.12387 20 7.33301 18.2092 7.33301 16Z" fill="black"/>
<path d="M11.333 21.333C9.12387 21.333 7.33301 23.1238 7.33301 25.333C7.33301 27.5422 9.12387 29.333 11.333 29.333C13.5422 29.333 15.333 27.5422 15.333 25.333V21.333H11.333Z" fill="black"/>
</svg>
